<svg width="130" height="62" viewBox="0 0 130 62" fill="none" xmlns="http://www.w3.org/2000/svg">
<g clip-path="url(#clip0_1_734)">
<path d="M67.1175 10.389C65.8853 9.41533 64.0803 8.89371 61.5465 8.89371C60.401 8.87632 59.2382 8.98065 58.1101 9.20668C57.2945 9.43271 56.5135 9.79785 55.8366 10.3021C55.2639 10.7368 54.8127 11.3279 54.535 11.9886C54.2746 12.632 54.1358 13.3101 54.1532 14.0056V14.7184C54.0837 14.9097 54.2226 15.0488 54.4135 15.0488H57.5201C57.6589 15.0314 57.763 14.9271 57.7804 14.788C57.8325 14.0925 58.1101 13.4318 58.5614 12.9102C59.082 12.319 60.0539 12.006 61.477 12.006C62.0845 11.9886 62.7093 12.0756 63.282 12.2668C63.6812 12.4233 64.063 12.632 64.3754 12.9102C64.844 13.3796 65.1216 14.0056 65.1563 14.6663V15.5704C65.1563 15.8834 65.0869 16.1963 64.9654 16.4745C64.8613 16.718 64.7051 16.944 64.5142 17.1179C64.3754 17.3091 64.2018 17.4482 63.9935 17.5699C63.8547 17.6743 63.6985 17.7612 63.5423 17.8307C63.4729 17.9003 63.2126 17.9698 62.6919 18.1611C62.1713 18.3524 61.72 18.5436 61.0779 18.7523C60.4357 18.9609 59.7762 19.1348 59.1341 19.3956C58.492 19.6564 57.9019 19.7781 57.3812 19.9868C56.3573 20.3171 55.5069 21.0126 54.9862 21.9341C54.4482 22.8209 54.1532 23.8293 54.1532 24.8552V26.8721C54.1879 27.4459 54.3094 28.0196 54.4829 28.5587C54.6912 29.2194 55.073 29.7931 55.5763 30.2452C56.2011 30.8538 56.9473 31.2884 57.7804 31.5493C58.9779 31.9144 60.2275 32.0883 61.477 32.0709C62.7266 32.123 63.9762 31.9492 65.1737 31.5493C66.0068 31.2884 66.7877 30.8364 67.4299 30.2452C67.9505 29.7931 68.3323 29.2194 68.5406 28.5587C68.7489 28.0196 68.853 27.4459 68.8704 26.8721V14.162C68.8704 12.6841 68.2282 11.3105 67.1175 10.389ZM64.3927 27.9675C63.8721 28.4891 62.8308 28.8021 61.477 28.8021C60.1233 28.8021 59.1515 28.5413 58.6308 28.0196C58.0581 27.3242 57.7804 26.4548 57.8498 25.5507C57.8498 25.0986 57.9192 24.577 58.1796 24.1945C58.3878 23.8641 58.6134 23.5511 58.8911 23.2903C59.1515 23.0991 59.5333 22.9078 59.863 22.6992C60.2448 22.5079 60.8349 22.3688 61.2861 22.1775C61.7374 21.9689 62.2233 21.795 62.7093 21.6559C63.2299 21.5342 63.6812 21.3256 64.1324 21.2039C64.358 21.1343 64.5836 21.03 64.7745 20.8735C65.0175 20.7344 65.1737 20.491 65.2258 20.2302L65.1563 25.5507C65.2258 26.42 64.9481 27.2894 64.3927 27.9675Z" fill="#B9B9B9"/>
<path d="M50.5431 8.89369H52.6084C52.7472 8.91108 52.8514 9.0154 52.8687 9.1545V9.20666L52.1572 11.9365C52.1572 12.0756 52.0357 12.1277 51.8968 12.1277H50.4737C49.8316 12.1103 49.1894 12.2147 48.5994 12.4581C48.1828 12.6146 47.801 12.858 47.506 13.171C47.2804 13.4144 47.0895 13.6926 46.9853 14.0055C46.9159 14.2837 46.8638 14.5619 46.8465 14.8401V31.7057C46.8638 31.8796 46.725 32.0187 46.5688 32.0361C46.5514 32.0361 46.5514 32.0361 46.5341 32.0361H43.4275C43.2713 32.0187 43.1498 31.8796 43.1672 31.7057V14.1446C43.1672 13.6926 43.2366 13.2231 43.3581 12.7884C43.4796 12.1277 43.8093 11.5192 44.2606 11.0323C44.8853 10.389 45.6316 9.86738 46.4647 9.53702C47.7489 9.03279 49.1547 8.80676 50.5431 8.89369Z" fill="#B9B9B9"/>
<path d="M39.9914 26.0027V26.7851C39.9914 27.2719 39.922 27.7414 39.8005 28.2109C39.6617 28.8716 39.3493 29.4627 38.898 29.967C38.2732 30.6103 37.527 31.1319 36.6939 31.4623C35.3923 31.9317 34.0039 32.1577 32.6155 32.1056C31.227 32.1404 29.8386 31.9317 28.537 31.4623C27.7039 31.1493 26.9403 30.6277 26.3329 29.967C25.8817 29.4801 25.5693 28.8716 25.4304 28.2109C25.2916 27.7588 25.2916 27.3067 25.2395 26.8546V9.15446C25.2222 8.98059 25.361 8.84149 25.5172 8.8241C25.5345 8.8241 25.5345 8.8241 25.5519 8.8241H28.5891C28.7626 8.80672 28.9014 8.94581 28.9188 9.11968C28.9188 9.13707 28.9188 9.13707 28.9188 9.15446V25.6375C28.9362 26.0548 28.9709 26.4547 29.0576 26.872C29.1618 27.2024 29.3527 27.5154 29.5783 27.7762C29.8733 28.1065 30.2552 28.3499 30.6717 28.489C31.2965 28.6977 31.956 28.802 32.6155 28.8194C33.2923 28.8368 33.9865 28.7325 34.6287 28.489C35.0452 28.3673 35.427 28.1413 35.722 27.8457C35.9824 27.6197 36.1559 27.3241 36.2427 26.9937C36.3815 26.5765 36.4336 26.1418 36.4336 25.6897V9.15446C36.4162 8.99797 36.5377 8.84149 36.6939 8.8241H39.8005C39.9741 8.80672 40.1129 8.94581 40.1302 9.11968C40.1302 9.13707 40.1302 9.13707 40.1302 9.15446L39.9914 26.0027Z" fill="#B9B9B9"/>
<path d="M18.818 0.51307H21.8552C22.0287 0.495683 22.1676 0.634781 22.1849 0.791266C22.1849 0.808653 22.1849 0.82604 22.1849 0.82604V31.7753C22.2023 31.9492 22.0634 32.0883 21.8899 32.1056C21.8725 32.1056 21.8725 32.1056 21.8552 32.1056H18.818C18.6445 32.123 18.5056 31.9839 18.4883 31.8101C18.4883 31.7927 18.4883 31.7927 18.4883 31.7753V0.82604C18.5577 0.634781 18.6792 0.51307 18.818 0.51307Z" fill="#B9B9B9"/>
<path d="M0.751221 40.1733C0.768576 39.8603 1.01155 39.5995 1.3413 39.5822H5.03795C5.35034 39.5995 5.61067 39.843 5.62803 40.1733V60.6555C5.61067 60.9684 5.3677 61.2292 5.03795 61.2466H1.3413C1.0289 61.2292 0.768576 60.9858 0.751221 60.6555V40.1733Z" fill="#B9B9B9"/>
<path d="M10.9041 39.843C10.9214 39.53 11.1817 39.2866 11.4941 39.2866H12.2578L24.5799 51.1621H24.6146V40.1734C24.6146 39.843 24.875 39.5822 25.2047 39.5822H28.9014C29.2138 39.5996 29.4741 39.843 29.4914 40.1734V60.9859C29.4741 61.2988 29.2138 61.5423 28.9014 61.5423H28.4154C28.2766 61.5249 28.1377 61.4727 28.0163 61.3858L15.8156 49.1104H15.7809V60.6555C15.7809 60.9859 15.5205 61.2467 15.1908 61.2467H11.5288C11.2164 61.2293 10.9561 60.9859 10.9388 60.6555L10.9041 39.843Z" fill="#B9B9B9"/>
<path d="M44.3822 39.2866C47.4715 39.2866 49.7623 40.2429 51.845 42.1555C52.0879 42.3468 52.1226 42.7119 51.9317 42.9727C51.9144 42.9901 51.897 43.0075 51.8797 43.0249L49.4673 45.546C49.259 45.7547 48.9119 45.7547 48.7037 45.546C47.5582 44.5376 46.0657 43.9638 44.5384 43.9638C41.05 43.9638 38.4815 46.8674 38.4815 50.3275C38.4815 53.7702 41.0848 56.6043 44.5558 56.6043C46.0657 56.6043 47.5235 56.0827 48.6863 55.1264C48.9293 54.9351 49.259 54.9525 49.4847 55.1611L51.897 57.7171C52.1053 57.9605 52.0879 58.3256 51.8623 58.5517C49.8491 60.499 47.1591 61.577 44.3649 61.5596C38.2212 61.5596 33.2576 56.5695 33.2576 50.4318C33.2576 44.2941 38.2385 39.2866 44.3822 39.2866Z" fill="#B9B9B9"/>
<path d="M55.5762 40.1733C55.5762 39.843 55.8365 39.5822 56.1663 39.5822H59.8455C60.1579 39.5995 60.4183 39.843 60.4356 40.1733V56.6912H67.7769C68.1066 56.6912 68.3669 56.952 68.3669 57.2823V60.6555C68.3669 60.9858 68.1066 61.2466 67.7769 61.2466H56.1663C55.8365 61.2466 55.5762 60.9858 55.5762 60.6555V40.1733Z" fill="#B9B9B9"/>
<path d="M70.7966 40.1733C70.814 39.8603 71.057 39.5995 71.3867 39.5822H75.1875C75.5172 39.5822 75.7776 39.843 75.7776 40.1733V52.6921C75.7776 54.8655 77.3742 56.5868 79.5784 56.5868C81.7998 56.5868 83.4312 54.8481 83.4312 52.6921V40.1733C83.4312 39.843 83.6915 39.5822 84.0213 39.5822H87.8221C88.1344 39.5995 88.3948 39.843 88.4121 40.1733V52.9529C88.4121 57.6475 84.4552 61.5596 79.5784 61.5596C74.7363 61.5596 70.814 57.6649 70.814 52.9529L70.7966 40.1733Z" fill="#B9B9B9"/>
<path d="M93.3757 40.1733C93.3757 39.8603 93.6187 39.5995 93.9311 39.5822H101.463C107.416 39.5822 112.293 44.4332 112.293 50.3796C112.293 56.3782 107.433 61.2292 101.463 61.2292H93.9311C93.6187 61.2119 93.3757 60.951 93.3757 60.6381V40.1733ZM101.151 56.6738C104.639 56.6738 107.173 53.9266 107.173 50.397C107.173 46.9022 104.639 44.155 101.151 44.155H98.1831V56.6738H101.151Z" fill="#B9B9B9"/>
<path d="M116.076 40.1733C116.076 39.843 116.337 39.5822 116.666 39.5822H129.44C129.77 39.5822 130.03 39.843 130.03 40.1733V43.5464C130.03 43.8768 129.77 44.1376 129.44 44.1376H120.884V47.9802H127.93C128.242 47.9976 128.503 48.241 128.52 48.5713V51.9445C128.52 52.2748 128.26 52.5356 127.93 52.5356H120.884V56.7086H129.44C129.77 56.7086 130.03 56.9694 130.03 57.2997V60.6728C130.03 61.0032 129.77 61.264 129.44 61.264H116.666C116.337 61.264 116.076 61.0032 116.076 60.6728V40.1733Z" fill="#B9B9B9"/>
<path d="M13.6982 10.389C12.466 9.41533 10.661 8.89371 8.12719 8.89371C6.98175 8.87632 5.81895 8.98065 4.69087 9.20668C3.85782 9.39794 3.09419 9.78046 2.43469 10.3021C1.86197 10.7368 1.41074 11.3279 1.13306 11.9886C0.872728 12.632 0.751242 13.3101 0.751242 14.0056V14.788C0.733887 14.9618 0.872728 15.1009 1.02892 15.1183C1.04628 15.1183 1.04628 15.1183 1.06364 15.1183H4.10079C4.23963 15.1009 4.34376 14.9966 4.36112 14.8575C4.41318 14.162 4.69087 13.5013 5.1421 12.9797C5.66276 12.3885 6.63465 12.0756 8.05777 12.0756C8.6652 12.006 9.28999 12.0756 9.88006 12.2668C10.2792 12.4233 10.661 12.632 10.9734 12.9102C11.442 13.3622 11.7197 14.0056 11.7544 14.6663V15.5704C11.7544 15.8834 11.685 16.1963 11.5635 16.4745C11.4594 16.718 11.3032 16.944 11.1123 17.1179C10.9734 17.3091 10.7999 17.4482 10.5916 17.5699C10.4528 17.6743 10.2966 17.7612 10.1404 17.8307C10.071 17.9003 9.81064 17.9698 9.30734 18.1611C8.80404 18.3524 8.33545 18.5436 7.69331 18.7523C7.05117 18.9609 6.40903 19.1348 5.74953 19.3956C5.09004 19.6564 4.49996 19.7781 3.97931 19.9868C2.9727 20.3171 2.10495 21.0126 1.58429 21.9341C1.04628 22.8209 0.751242 23.8293 0.733887 24.8552V26.8547C0.768597 27.4285 0.890084 28.0023 1.06364 28.5413C1.2719 29.202 1.65371 29.7758 2.15701 30.2278C2.7818 30.8364 3.52807 31.2711 4.36112 31.5319C5.55863 31.897 6.8082 32.0709 8.05777 32.0535C9.30734 32.1056 10.5569 31.9318 11.7544 31.5319C12.5875 31.2711 13.3685 30.819 14.028 30.2278C14.5486 29.7758 14.9304 29.202 15.1213 28.5413C15.3296 28.0023 15.4337 27.4285 15.4511 26.8547V14.1446C15.4511 12.6841 14.8089 11.3105 13.6982 10.389ZM11.0429 27.9675C10.5222 28.4891 9.55032 28.8021 8.12719 28.8021C6.70407 28.8021 5.73218 28.5413 5.21152 28.0196C4.6388 27.3242 4.36112 26.4548 4.43054 25.5507C4.43054 25.0812 4.55203 24.6118 4.74293 24.1945C4.9512 23.8641 5.17681 23.5685 5.45449 23.2903C5.71482 23.0991 6.09664 22.9078 6.42638 22.6992C6.8082 22.5079 7.39828 22.3688 7.84951 22.1775C8.30074 21.9689 8.78669 21.795 9.27263 21.6559C9.79329 21.5342 10.2445 21.3256 10.6958 21.2039C10.9214 21.1343 11.147 21.03 11.3379 20.8735C11.5809 20.7344 11.7371 20.491 11.7891 20.2302V25.5507C11.9106 26.4374 11.6156 27.3068 11.0429 27.9675Z" fill="#B9B9B9"/>
</g>
<defs>
<clipPath id="clip0_1_734">
<rect width="130" height="62" fill="white"/>
</clipPath>
</defs>
</svg>
