<?xml version="1.0" encoding="UTF-8"?>
<!DOCTYPE svg PUBLIC "-//W3C//DTD SVG 1.1//EN" "http://www.w3.org/Graphics/SVG/1.1/DTD/svg11.dtd">
<svg xmlns="http://www.w3.org/2000/svg" version="1.1" width="512px" height="512px" style="shape-rendering:geometricPrecision; text-rendering:geometricPrecision; image-rendering:optimizeQuality; fill-rule:evenodd; clip-rule:evenodd" xmlns:xlink="http://www.w3.org/1999/xlink">
<g><path style="opacity:1" fill="#03904a" d="M 232.5,-0.5 C 247.833,-0.5 263.167,-0.5 278.5,-0.5C 284.177,0.42725 289.844,1.42725 295.5,2.5C 207.566,18.2784 143.4,65.9451 103,145.5C 92.1064,168.412 84.9398,192.412 81.5,217.5C 81.5,218.167 81.1667,218.5 80.5,218.5C 59.3631,230.57 38.3631,242.903 17.5,255.5C 38.3631,268.097 59.3631,280.43 80.5,292.5C 81.1667,292.5 81.5,292.833 81.5,293.5C 97.2887,382.764 145.622,447.598 226.5,488C 250.235,499.525 275.235,506.025 301.5,507.5C 293.871,509.078 286.205,510.412 278.5,511.5C 263.167,511.5 247.833,511.5 232.5,511.5C 142.856,500.612 75.3562,456.279 30,378.5C 13.3053,347.029 3.1386,313.696 -0.5,278.5C -0.5,263.167 -0.5,247.833 -0.5,232.5C 10.3875,142.857 54.7208,75.3573 132.5,30C 163.971,13.3053 197.304,3.1386 232.5,-0.5 Z"/></g>
<g><path style="opacity:1" fill="#05a457" d="M 295.5,2.5 C 372.292,15.9599 431.792,55.2932 474,120.5C 494.822,155.132 507.322,192.465 511.5,232.5C 511.5,247.833 511.5,263.167 511.5,278.5C 500.612,368.144 456.279,435.644 378.5,481C 354.298,494.123 328.631,502.956 301.5,507.5C 275.235,506.025 250.235,499.525 226.5,488C 145.622,447.598 97.2887,382.764 81.5,293.5C 139.546,326.943 197.713,360.276 256,393.5C 335.286,347.716 414.453,301.716 493.5,255.5C 414.453,209.284 335.286,163.284 256,117.5C 197.713,150.724 139.546,184.057 81.5,217.5C 84.9398,192.412 92.1064,168.412 103,145.5C 143.4,65.9451 207.566,18.2784 295.5,2.5 Z"/></g>
<g><path style="opacity:1" fill="#00b463" d="M 425.5,102.5 C 435.659,101.832 440.826,106.498 441,116.5C 437.126,125.236 430.959,127.402 422.5,123C 416.469,115.105 417.469,108.271 425.5,102.5 Z"/></g>
<g><path style="opacity:1" fill="#fbc03d" d="M 81.5,293.5 C 81.5,292.833 81.1667,292.5 80.5,292.5C 77.8495,267.832 77.8495,243.165 80.5,218.5C 81.1667,218.5 81.5,218.167 81.5,217.5C 139.546,184.057 197.713,150.724 256,117.5C 335.286,163.284 414.453,209.284 493.5,255.5C 414.453,301.716 335.286,347.716 256,393.5C 197.713,360.276 139.546,326.943 81.5,293.5 Z"/></g>
<g><path style="opacity:1" fill="#00b463" d="M 446.5,123.5 C 462.502,122.334 469.335,129.667 467,145.5C 461.343,155.789 453.177,158.289 442.5,153C 432.083,141.501 433.416,131.667 446.5,123.5 Z"/></g>
<g><path style="opacity:1" fill="#40446d" d="M 354.5,255.5 C 323.875,220.162 285.542,196.995 239.5,186C 225.28,183.456 211.28,180.623 197.5,177.5C 228.038,156.512 260.704,152.678 295.5,166C 332.802,184.081 352.469,213.914 354.5,255.5 Z"/></g>
<g><path style="opacity:1" fill="#fcfcfd" d="M 197.5,177.5 C 211.28,180.623 225.28,183.456 239.5,186C 285.542,196.995 323.875,220.162 354.5,255.5C 354.711,268.107 352.378,280.107 347.5,291.5C 327.164,257.349 298.164,233.516 260.5,220C 232.346,210.069 203.346,204.569 173.5,203.5C 172.761,203.631 172.094,203.464 171.5,203C 178.103,192.229 186.77,183.729 197.5,177.5 Z"/></g>
<g><path style="opacity:1" fill="#3e436d" d="M 173.5,203.5 C 203.346,204.569 232.346,210.069 260.5,220C 298.164,233.516 327.164,257.349 347.5,291.5C 332.918,325.801 307.251,346.301 270.5,353C 228.854,357.09 196.354,341.923 173,307.5C 153.52,272.658 153.686,237.991 173.5,203.5 Z"/></g>
<g><path style="opacity:1" fill="#dca22c" d="M 80.5,218.5 C 77.8495,243.165 77.8495,267.832 80.5,292.5C 59.3631,280.43 38.3631,268.097 17.5,255.5C 38.3631,242.903 59.3631,230.57 80.5,218.5 Z"/></g>
<g><path style="opacity:1" fill="#f8f8fa" d="M 184.5,222.5 C 191.655,222.153 194.821,225.486 194,232.5C 189.667,237.833 185.333,237.833 181,232.5C 180.333,230.5 180.333,228.5 181,226.5C 182.376,225.295 183.542,223.962 184.5,222.5 Z"/></g>
<g><path style="opacity:1" fill="#f8f8fa" d="M 266.5,248.5 C 273.655,248.153 276.821,251.486 276,258.5C 271.667,263.833 267.333,263.833 263,258.5C 262.333,256.5 262.333,254.5 263,252.5C 264.376,251.295 265.542,249.962 266.5,248.5 Z"/></g>
<g><path style="opacity:1" fill="#f8f8fa" d="M 184.5,279.5 C 191.655,279.153 194.821,282.486 194,289.5C 189.667,294.833 185.333,294.833 181,289.5C 180.333,287.5 180.333,285.5 181,283.5C 182.376,282.295 183.542,280.962 184.5,279.5 Z"/></g>
<g><path style="opacity:1" fill="#f8f8fa" d="M 217.5,286.5 C 224.655,286.153 227.821,289.486 227,296.5C 222.667,301.833 218.333,301.833 214,296.5C 213.333,294.5 213.333,292.5 214,290.5C 215.376,289.295 216.542,287.962 217.5,286.5 Z"/></g>
<g><path style="opacity:1" fill="#f7f7f8" d="M 314.5,292.5 C 321.799,291.371 324.965,294.371 324,301.5C 319.667,308.167 315.333,308.167 311,301.5C 309.98,297.553 311.147,294.553 314.5,292.5 Z"/></g>
<g><path style="opacity:1" fill="#f7f7f8" d="M 252.5,302.5 C 259.799,301.371 262.965,304.371 262,311.5C 257.667,318.167 253.333,318.167 249,311.5C 247.98,307.553 249.147,304.553 252.5,302.5 Z"/></g>
<g><path style="opacity:1" fill="#f5f5f7" d="M 296.5,314.5 C 303.193,314.685 306.026,318.019 305,324.5C 302.839,328.124 299.672,329.291 295.5,328C 289.954,323.097 290.288,318.597 296.5,314.5 Z"/></g>
<g><path style="opacity:1" fill="#f8f8fa" d="M 217.5,320.5 C 224.655,320.153 227.821,323.486 227,330.5C 222.667,335.833 218.333,335.833 214,330.5C 213.333,328.5 213.333,326.5 214,324.5C 215.376,323.295 216.542,321.962 217.5,320.5 Z"/></g>
<g><path style="opacity:1" fill="#f8f8fa" d="M 266.5,327.5 C 273.655,327.153 276.821,330.486 276,337.5C 271.667,342.833 267.333,342.833 263,337.5C 262.333,335.5 262.333,333.5 263,331.5C 264.376,330.295 265.542,328.962 266.5,327.5 Z"/></g>
</svg>
