<?xml version="1.0" encoding="UTF-8"?>
<!DOCTYPE svg PUBLIC "-//W3C//DTD SVG 1.1//EN" "http://www.w3.org/Graphics/SVG/1.1/DTD/svg11.dtd">
<svg xmlns="http://www.w3.org/2000/svg" version="1.1" width="512px" height="512px" style="shape-rendering:geometricPrecision; text-rendering:geometricPrecision; image-rendering:optimizeQuality; fill-rule:evenodd; clip-rule:evenodd" xmlns:xlink="http://www.w3.org/1999/xlink">
<g><path style="opacity:1" fill="#0352b4" d="M 232.5,-0.5 C 240.167,-0.5 247.833,-0.5 255.5,-0.5C 255.5,18.1667 255.5,36.8333 255.5,55.5C 255.5,77.5 255.5,99.5 255.5,121.5C 255.5,121.833 255.5,122.167 255.5,122.5C 255.5,144.5 255.5,166.5 255.5,188.5C 255.5,188.833 255.5,189.167 255.5,189.5C 255.5,211.5 255.5,233.5 255.5,255.5C 170.167,255.5 84.8333,255.5 -0.5,255.5C -0.5,247.833 -0.5,240.167 -0.5,232.5C 0.476669,229.713 0.810002,226.713 0.5,223.5C 5.1315,220.553 9.79817,217.553 14.5,214.5C 21.3436,219.089 28.0103,223.922 34.5,229C 35.1667,229.667 35.8333,229.667 36.5,229C 32.965,220.736 30.465,212.236 29,203.5C 35.8333,198.667 42.6667,193.833 49.5,189C 40.5062,188.5 31.5062,188.334 22.5,188.5C 20.3691,180.774 18.0358,173.107 15.5,165.5C 17.4058,158.764 20.0725,152.431 23.5,146.5C 27.3916,149.034 31.2249,151.7 35,154.5C 34.1014,147.629 32.2681,140.962 29.5,134.5C 31.2336,130.7 33.2336,127.034 35.5,123.5C 39.9331,120.916 44.2664,118.082 48.5,115C 46.2922,114.809 44.2922,114.309 42.5,113.5C 55.5569,92.432 71.8903,74.0986 91.5,58.5C 89.5103,64.804 87.5103,71.1373 85.5,77.5C 85.8333,78.1667 86.1667,78.8333 86.5,79.5C 92.8712,74.6249 99.3712,69.9582 106,65.5C 112.903,70.0372 119.737,74.7039 126.5,79.5C 126.833,79.1667 127.167,78.8333 127.5,78.5C 124.59,70.6179 122.423,62.6179 121,54.5C 127.589,49.7885 134.089,44.9552 140.5,40C 132.841,39.5003 125.174,39.3336 117.5,39.5C 152.614,17.0172 190.947,3.68387 232.5,-0.5 Z"/></g>
<g><path style="opacity:0.989" fill="#f0eeee" d="M 255.5,-0.5 C 263.167,-0.5 270.833,-0.5 278.5,-0.5C 329.83,4.67605 375.497,23.3427 415.5,55.5C 362.167,55.5 308.833,55.5 255.5,55.5C 255.5,36.8333 255.5,18.1667 255.5,-0.5 Z"/></g>
<g><path style="opacity:1" fill="#ebecee" d="M 197.5,14.5 C 200.864,22.2461 203.864,30.2461 206.5,38.5C 215.148,39.3319 223.814,39.8319 232.5,40C 225.196,44.9748 218.196,50.3081 211.5,56C 214.836,64.0023 217.336,72.169 219,80.5C 212.335,75.0036 205.335,70.0036 198,65.5C 191.011,70.4854 184.011,75.4854 177,80.5C 179.064,72.3005 181.564,64.1338 184.5,56C 177.843,50.3595 170.843,45.0262 163.5,40C 172.167,39.6667 180.833,39.3333 189.5,39C 192.667,30.9984 195.334,22.8318 197.5,14.5 Z"/></g>
<g><path style="opacity:0.984" fill="#eaecee" d="M 117.5,39.5 C 125.174,39.3336 132.841,39.5003 140.5,40C 134.089,44.9552 127.589,49.7885 121,54.5C 122.423,62.6179 124.59,70.6179 127.5,78.5C 127.167,78.8333 126.833,79.1667 126.5,79.5C 119.737,74.7039 112.903,70.0372 106,65.5C 99.3712,69.9582 92.8712,74.6249 86.5,79.5C 86.1667,78.8333 85.8333,78.1667 85.5,77.5C 87.5103,71.1373 89.5103,64.804 91.5,58.5C 99.582,51.4255 108.249,45.0922 117.5,39.5 Z"/></g>
<g><path style="opacity:1" fill="#d80127" d="M 255.5,55.5 C 308.833,55.5 362.167,55.5 415.5,55.5C 439.142,73.4665 458.475,95.1332 473.5,120.5C 401.002,121.499 328.335,121.833 255.5,121.5C 255.5,99.5 255.5,77.5 255.5,55.5 Z"/></g>
<g><path style="opacity:1" fill="#eaecee" d="M 206.5,113.5 C 214.833,114.167 223.167,114.833 231.5,115.5C 224.991,120.502 218.325,125.335 211.5,130C 215.028,138.053 217.361,146.22 218.5,154.5C 211.755,149.378 204.922,144.378 198,139.5C 190.716,144.45 183.716,149.783 177,155.5C 178.762,147.04 181.262,138.706 184.5,130.5C 178.2,125.016 171.533,120.016 164.5,115.5C 172.833,114.833 181.167,114.167 189.5,113.5C 192.201,105.571 195.034,97.5713 198,89.5C 201.328,97.317 204.161,105.317 206.5,113.5 Z"/></g>
<g><path style="opacity:1" fill="#e9ebee" d="M 114.5,113.5 C 122.833,114.167 131.167,114.833 139.5,115.5C 133.518,119.809 127.518,124.142 121.5,128.5C 121.167,129.333 120.833,130.167 120.5,131C 123.106,138.803 125.272,146.636 127,154.5C 120.279,149.603 113.446,144.936 106.5,140.5C 99.4459,144.782 92.6125,149.449 86,154.5C 87.4233,146.382 89.59,138.382 92.5,130.5C 85.902,124.529 78.902,119.029 71.5,114C 80.4938,113.5 89.4938,113.334 98.5,113.5C 100.694,105.416 103.194,97.4162 106,89.5C 109.323,97.3011 112.156,105.301 114.5,113.5 Z"/></g>
<g><path style="opacity:1" fill="#709bd0" d="M 114.5,113.5 C 123.506,113.334 132.506,113.5 141.5,114C 140.956,114.717 140.289,115.217 139.5,115.5C 131.167,114.833 122.833,114.167 114.5,113.5 Z"/></g>
<g><path style="opacity:1" fill="#6e9acf" d="M 189.5,113.5 C 181.167,114.167 172.833,114.833 164.5,115.5C 163.957,115.44 163.624,115.107 163.5,114.5C 172.141,113.502 180.808,113.169 189.5,113.5 Z"/></g>
<g><path style="opacity:1" fill="#709cd0" d="M 206.5,113.5 C 215.192,113.169 223.859,113.502 232.5,114.5C 232.376,115.107 232.043,115.44 231.5,115.5C 223.167,114.833 214.833,114.167 206.5,113.5 Z"/></g>
<g><path style="opacity:0.872" fill="#e3e7ec" d="M 42.5,113.5 C 44.2922,114.309 46.2922,114.809 48.5,115C 44.2664,118.082 39.9331,120.916 35.5,123.5C 37.3535,119.779 39.6869,116.446 42.5,113.5 Z"/></g>
<g><path style="opacity:1" fill="#e58092" d="M 473.5,120.5 C 474.338,120.842 474.672,121.508 474.5,122.5C 401.5,122.5 328.5,122.5 255.5,122.5C 255.5,122.167 255.5,121.833 255.5,121.5C 328.335,121.833 401.002,121.499 473.5,120.5 Z"/></g>
<g><path style="opacity:0.998" fill="#f0f0f0" d="M 255.5,122.5 C 328.5,122.5 401.5,122.5 474.5,122.5C 487.4,142.977 497.067,164.977 503.5,188.5C 420.833,188.5 338.167,188.5 255.5,188.5C 255.5,166.5 255.5,144.5 255.5,122.5 Z"/></g>
<g><path style="opacity:0.931" fill="#e1e6ec" d="M 29.5,134.5 C 32.2681,140.962 34.1014,147.629 35,154.5C 31.2249,151.7 27.3916,149.034 23.5,146.5C 24.9922,142.182 26.9922,138.182 29.5,134.5 Z"/></g>
<g><path style="opacity:1" fill="#e9ebee" d="M 105.5,163.5 C 106.117,163.611 106.617,163.944 107,164.5C 109.603,172.141 112.103,179.808 114.5,187.5C 123.148,188.332 131.814,188.832 140.5,189C 134.089,193.955 127.589,198.789 121,203.5C 123,212.167 125,220.833 127,229.5C 120.433,224.133 113.6,219.133 106.5,214.5C 99.5568,218.777 92.8901,223.444 86.5,228.5C 85.3861,227.277 85.2195,225.944 86,224.5C 88.1667,218 90.3333,211.5 92.5,205C 85.8036,199.308 78.8036,193.975 71.5,189C 80.4938,188.5 89.4938,188.334 98.5,188.5C 100.628,180.115 102.961,171.782 105.5,163.5 Z"/></g>
<g><path style="opacity:1" fill="#eaebee" d="M 197.5,163.5 C 200.864,171.246 203.864,179.246 206.5,187.5C 215.148,188.332 223.814,188.832 232.5,189C 225.289,194.1 218.289,199.433 211.5,205C 214.836,213.002 217.336,221.169 219,229.5C 212.078,224.622 205.245,219.622 198.5,214.5C 191.195,219.305 184.029,224.305 177,229.5C 179.06,221.311 181.56,213.145 184.5,205C 177.804,199.308 170.804,193.975 163.5,189C 172.494,188.5 181.494,188.334 190.5,188.5C 192.628,180.116 194.961,171.782 197.5,163.5 Z"/></g>
<g><path style="opacity:0.977" fill="#ebedee" d="M 15.5,165.5 C 18.0358,173.107 20.3691,180.774 22.5,188.5C 31.5062,188.334 40.5062,188.5 49.5,189C 42.6667,193.833 35.8333,198.667 29,203.5C 30.465,212.236 32.965,220.736 36.5,229C 35.8333,229.667 35.1667,229.667 34.5,229C 28.0103,223.922 21.3436,219.089 14.5,214.5C 9.79817,217.553 5.1315,220.553 0.5,223.5C 3.32586,203.527 8.32586,184.194 15.5,165.5 Z"/></g>
<g><path style="opacity:1" fill="#dd304f" d="M 255.5,189.5 C 255.5,189.167 255.5,188.833 255.5,188.5C 338.167,188.5 420.833,188.5 503.5,188.5C 503.5,189.167 503.5,189.833 503.5,190.5C 420.904,189.503 338.237,189.17 255.5,189.5 Z"/></g>
<g><path style="opacity:1" fill="#d80027" d="M 255.5,189.5 C 338.237,189.17 420.904,189.503 503.5,190.5C 507.258,204.396 509.925,218.396 511.5,232.5C 511.5,240.167 511.5,247.833 511.5,255.5C 426.167,255.5 340.833,255.5 255.5,255.5C 255.5,233.5 255.5,211.5 255.5,189.5 Z"/></g>
<g><path style="opacity:0.998" fill="#f0f0f0" d="M -0.5,255.5 C 84.8333,255.5 170.167,255.5 255.5,255.5C 340.833,255.5 426.167,255.5 511.5,255.5C 511.5,263.167 511.5,270.833 511.5,278.5C 509.821,292.891 507.155,307.225 503.5,321.5C 338.332,321.167 173.332,321.5 8.5,322.5C 8.5,322.833 8.5,323.167 8.5,323.5C 4.10018,308.765 1.10018,293.765 -0.5,278.5C -0.5,270.833 -0.5,263.167 -0.5,255.5 Z"/></g>
<g><path style="opacity:1" fill="#ebbfc7" d="M 8.5,322.5 C 173.332,321.5 338.332,321.167 503.5,321.5C 503.672,322.492 503.338,323.158 502.5,323.5C 338.001,322.5 173.334,322.167 8.5,322.5 Z"/></g>
<g><path style="opacity:1" fill="#d80628" d="M 8.5,322.5 C 173.334,322.167 338.001,322.5 502.5,323.5C 496.449,346.931 487.115,368.931 474.5,389.5C 328.5,389.5 182.5,389.5 36.5,389.5C 23.8847,368.931 14.5513,346.931 8.5,323.5C 8.5,323.167 8.5,322.833 8.5,322.5 Z"/></g>
<g><path style="opacity:0.997" fill="#f0f0f0" d="M 36.5,389.5 C 182.5,389.5 328.5,389.5 474.5,389.5C 458.805,415.537 438.805,437.87 414.5,456.5C 308.5,455.167 202.5,455.167 96.5,456.5C 72.1952,437.87 52.1952,415.537 36.5,389.5 Z"/></g>
<g><path style="opacity:1" fill="#e04f69" d="M 414.5,456.5 C 414.027,457.906 413.027,458.573 411.5,458.5C 411.611,457.883 411.944,457.383 412.5,457C 307.833,456.333 203.167,456.333 98.5,457C 99.056,457.383 99.3893,457.883 99.5,458.5C 97.9731,458.573 96.9731,457.906 96.5,456.5C 202.5,455.167 308.5,455.167 414.5,456.5 Z"/></g>
<g><path style="opacity:1" fill="#d80729" d="M 411.5,458.5 C 382.074,482.041 348.741,497.875 311.5,506C 300.424,508.254 289.424,510.087 278.5,511.5C 263.167,511.5 247.833,511.5 232.5,511.5C 185.994,506.831 143.661,490.998 105.5,464C 103.237,462.383 101.237,460.55 99.5,458.5C 99.3893,457.883 99.056,457.383 98.5,457C 203.167,456.333 307.833,456.333 412.5,457C 411.944,457.383 411.611,457.883 411.5,458.5 Z"/></g>
</svg>
